<?xml version="1.0" encoding="UTF-8" standalone="no"?>
<svg xmlns="http://www.w3.org/2000/svg" width="512" height="512" viewBox="0 0 512 512">
  <!-- Background circle -->
  <circle cx="256" cy="256" r="240" fill="#3498db" />
  <circle cx="256" cy="256" r="220" fill="#2980b9" />
  
  <!-- Map grid lines -->
  <g stroke="#ffffff" stroke-width="3" opacity="0.6">
    <!-- Longitude lines -->
    <line x1="96" y1="96" x2="96" y2="416" />
    <line x1="176" y1="96" x2="176" y2="416" />
    <line x1="256" y1="96" x2="256" y2="416" />
    <line x1="336" y1="96" x2="336" y2="416" />
    <line x1="416" y1="96" x2="416" y2="416" />
    
    <!-- Latitude lines -->
    <line x1="96" y1="96" x2="416" y2="96" />
    <line x1="96" y1="176" x2="416" y2="176" />
    <line x1="96" y1="256" x2="416" y2="256" />
    <line x1="96" y1="336" x2="416" y2="336" />
    <line x1="96" y1="416" x2="416" y2="416" />
  </g>
  
  <!-- Tracking points -->
  <circle cx="150" cy="200" r="12" fill="#e74c3c" stroke="#ffffff" stroke-width="3" />
  <circle cx="210" cy="260" r="12" fill="#e74c3c" stroke="#ffffff" stroke-width="3" />
  <circle cx="270" cy="190" r="12" fill="#e74c3c" stroke="#ffffff" stroke-width="3" />
  <circle cx="330" cy="310" r="12" fill="#e74c3c" stroke="#ffffff" stroke-width="3" />
  <circle cx="390" cy="240" r="12" fill="#e74c3c" stroke="#ffffff" stroke-width="3" />
  
  <!-- Tracking path -->
  <path d="M150,200 L210,260 L270,190 L330,310 L390,240" 
        stroke="#e74c3c" stroke-width="5" fill="none" stroke-dasharray="10,5" />
  
  <!-- Directional arrow -->
  <g transform="translate(256, 256) rotate(45)">
    <polygon points="0,-60 15,-30 0,-40 -15,-30" 
             fill="#2ecc71" stroke="#ffffff" stroke-width="3" />
    <line x1="0" y1="-40" x2="0" y2="60" 
          stroke="#2ecc71" stroke-width="10" stroke-linecap="round" />
  </g>
  
  <!-- Outer ring -->
  <circle cx="256" cy="256" r="240" fill="none" stroke="#ffffff" stroke-width="8" />
</svg>
