<svg xmlns="http://www.w3.org/2000/svg" viewBox="0 0 24 24" width="24" height="24"><path d="M12.5 2C13.3284 2 14 2.67157 14 3.5V13.5C14 13.7761 14.2239 14 14.5 14C14.7761 14 15 13.7761 15 13.5V7.5C15 6.67157 15.6716 6 16.5 6C17.3284 6 18 6.67157 18 7.5V13.5C18 13.7761 18.2239 14 18.5 14C18.7761 14 19 13.7761 19 13.5V9.5C19 8.67157 19.6716 8 20.5 8C21.3284 8 22 8.67157 22 9.5V17.5C22 20.5376 19.5376 23 16.5 23H10.5C7.46243 23 5 20.5376 5 17.5V8.5C5 7.67157 5.67157 7 6.5 7C7.32843 7 8 7.67157 8 8.5V13.5C8 13.7761 8.22386 14 8.5 14C8.77614 14 9 13.7761 9 13.5V3.5C9 2.67157 9.67157 2 10.5 2C11.3284 2 12 2.67157 12 3.5V13.5C12 13.7761 12.2239 14 12.5 14C12.7761 14 13 13.7761 13 13.5V3.5C13 2.67157 13.6716 2 14.5 2C15.3284 2 16 2.67157 16 3.5V13.5C16 13.7761 16.2239 14 16.5 14C16.7761 14 17 13.7761 17 13.5V7.5C17 6.67157 17.6716 6 18.5 6C19.3284 6 20 6.67157 20 7.5V13.5C20 13.7761 20.2239 14 20.5 14C20.7761 14 21 13.7761 21 13.5V9.5C21 8.67157 21.6716 8 22.5 8C23.3284 8 24 8.67157 24 9.5V17.5C24 20.5376 21.5376 23 18.5 23H12.5C9.46243 23 7 20.5376 7 17.5V8.5C7 7.67157 7.67157 7 8.5 7C9.32843 7 10 7.67157 10 8.5V13.5C10 13.7761 10.2239 14 10.5 14C10.7761 14 11 13.7761 11 13.5V3.5C11 2.67157 11.6716 2 12.5 2Z"/></svg>
