<svg xmlns="http://www.w3.org/2000/svg" width="96" height="96" viewBox="0 0 96 96" fill="none">
  <!-- Four-way arrow -->
  <g>
    <line x1="48" y1="16" x2="48" y2="56" stroke="black" stroke-width="6" stroke-linecap="round"/>
    <line x1="16" y1="48" x2="80" y2="48" stroke="black" stroke-width="6" stroke-linecap="round"/>
    <polyline points="48,16 40,24 56,24 48,16" fill="black"/>
    <polyline points="48,56 40,48 56,48 48,56" fill="black"/>
    <polyline points="16,48 24,40 24,56 16,48" fill="black"/>
    <polyline points="80,48 72,40 72,56 80,48" fill="black"/>
  </g>
  <!-- Hand icon below the arrows -->
  <g>
    <path d="M60 60 Q62 62 62 66 L62 78 Q62 84 56 84 L50 84 Q48 84 47 83 L34 70 Q32 68 34 66 Q36 64 38 66 L48 76 Q50 78 52 76 Q54 74 52 72 L44 64 Q42 62 44 60 Q46 58 48 60 L56 68 Q58 70 60 68 Q62 66 60 64 Z" fill="black"/>
  </g>
</svg>
